<?xml version="1.0" encoding="utf-8"?>
<!-- Generator: Adobe Illustrator 24.0.1, SVG Export Plug-In . SVG Version: 6.00 Build 0)  -->
<svg version="1.1" xmlns="http://www.w3.org/2000/svg" xmlns:xlink="http://www.w3.org/1999/xlink" x="0px" y="0px"
	 viewBox="0 0 500 650" enable-background="new 0 0 500 650" xml:space="preserve">
<g id="bg">
	<g>
		<rect width="500" height="650"/>
	</g>
</g>
<g id="clipping_masks">
	<path fill="#171731" d="M421.4,520.9H78.6c-13.5,0-24.5-11-24.5-24.5V153.6c0-13.5,11-24.5,24.5-24.5h342.8
		c13.5,0,24.5,11,24.5,24.5v342.8C445.9,509.9,434.9,520.9,421.4,520.9z"/>
	<circle fill="#252550" cx="250" cy="325" r="195.9"/>
	<g>
		
			<circle fill="none" stroke="#7C72EB" stroke-width="8.5787" stroke-miterlimit="10" stroke-dasharray="43.0002,43.0002" cx="250" cy="325" r="191.6"/>
	</g>
	<g>
		<path fill="#7C72EB" d="M213.9,473.6V328.7h51l-0.1-16l-0.2-16l-68.5-0.2c-37.6-0.1-68.7,0.1-68.8,0.3l-0.4,16.2v15.7h51v144.9
			H213.9z"/>
		<path fill="#7C72EB" d="M346.4,364.8c-15.2-6.6-20.1-9.8-22.7-15.2c-1.2-2.5-1.7-4.3-1.7-7.3c-0.1-10.4,7.6-16.6,19.5-15.8
			c8.1,0.6,13.4,3.7,18.4,11.1c1.7,2.5,3.2,4.1,3.6,3.9c10.3-6.4,27.4-17.9,27.2-18.3c-0.4-1.7-5.8-8.7-9.4-12.6
			c-7-7.2-14.6-11.6-24.5-14.1l0,0c-6.8-1.7-22.8-2.2-29.7-0.9c-21.3,4-36,17.6-40.2,37.2c-1.2,5.6-0.8,19.5,0.7,25
			c1.8,6.7,6.2,14.6,10.8,19.6c8,8.6,16.7,14,36.9,22.7c17.7,7.7,23.9,11.3,26.9,15.7c2.4,3.4,2.9,5.4,2.9,9.9c0,5-1.5,8.5-5.1,11.8
			c-8.5,7.6-25.6,8.5-38.1,1.9c-4.4-2.3-11.6-9.2-14.9-14.2l-2.4-3.5l-11.3,6.5l-14.6,8.4c-1.8,1.1-3.4,2.1-3.6,2.3
			c-0.4,0.8,6.6,11.1,10.2,15.1c9.2,10.2,24.1,18,39.9,20.8c7.2,1.3,23.1,1.5,29.9,0.3c21.7-3.7,37.1-14.7,43.3-31
			c5.7-15,3.8-35.1-4.5-47.8C386.4,384.8,374.4,376.9,346.4,364.8z"/>
	</g>
</g>
</svg>
