<?xml version="1.0" encoding="utf-8"?>
<!-- Generator: Adobe Illustrator 24.0.1, SVG Export Plug-In . SVG Version: 6.00 Build 0)  -->
<svg version="1.1" xmlns="http://www.w3.org/2000/svg" xmlns:xlink="http://www.w3.org/1999/xlink" x="0px" y="0px"
	 viewBox="0 0 500 650" enable-background="new 0 0 500 650" xml:space="preserve">
<g id="layer">
	<path fill="#252550" stroke="#7C72EB" stroke-width="3" stroke-miterlimit="10" d="M421.7,499H73.3c-6.3,0-11.3-5.1-11.3-11.3
		v-43.3c0-6.3,5.1-11.3,11.3-11.3h348.3c6.3,0,11.3,5.1,11.3,11.3v43.3C433,493.9,427.9,499,421.7,499z"/>
	<path fill="#7C72EB" d="M115.4,454.7l-6.2-6.2c-0.7-0.7-1.6-1-2.5-1H91.6c-2,0-3.6,1.6-3.6,3.6v30.8c0,2,1.6,3.6,3.6,3.6h21.3
		c2,0,3.6-1.6,3.6-3.6v-24.6C116.5,456.3,116.1,455.4,115.4,454.7z M113.7,456.4c0.2,0.2,0.3,0.3,0.3,0.5H107v-7.1
		c0.2,0.1,0.4,0.2,0.5,0.3L113.7,456.4z M112.9,483H91.6c-0.7,0-1.2-0.5-1.2-1.2V451c0-0.7,0.5-1.2,1.2-1.2h13v7.7
		c0,1,0.8,1.8,1.8,1.8h7.7v22.5C114.1,482.5,113.6,483,112.9,483z M109.3,464.9v0.6c0,0.5-0.4,0.9-0.9,0.9H96
		c-0.5,0-0.9-0.4-0.9-0.9v-0.6c0-0.5,0.4-0.9,0.9-0.9h12.5C108.9,464,109.3,464.4,109.3,464.9z M109.3,469.7v0.6
		c0,0.5-0.4,0.9-0.9,0.9H96c-0.5,0-0.9-0.4-0.9-0.9v-0.6c0-0.5,0.4-0.9,0.9-0.9h12.5C108.9,468.8,109.3,469.2,109.3,469.7z
		 M109.3,474.4v0.6c0,0.5-0.4,0.9-0.9,0.9H96c-0.5,0-0.9-0.4-0.9-0.9v-0.6c0-0.5,0.4-0.9,0.9-0.9h12.5
		C108.9,473.5,109.3,473.9,109.3,474.4z"/>
	<g>
		<path fill="#7C72EB" d="M145.9,458.6c1.4,0,2.6,0.4,3.4,1.1c0.8,0.7,1.3,1.8,1.3,3.2c0,0.7-0.2,1.4-0.5,2s-0.8,1-1.3,1.3
			c0.8,0.3,1.5,0.8,1.9,1.5c0.5,0.7,0.7,1.6,0.7,2.6c0,1.6-0.5,2.8-1.4,3.6c-0.9,0.9-2.2,1.3-3.8,1.3h-5.9v-16.6H145.9z
			 M142.4,460.6v4.8h3.4c0.8,0,1.4-0.2,1.9-0.6c0.5-0.4,0.7-1,0.7-1.8s-0.2-1.4-0.7-1.8s-1.1-0.6-1.9-0.6H142.4z M142.4,473.3h3.5
			c1.1,0,1.9-0.2,2.5-0.7c0.6-0.5,0.8-1.2,0.8-2.2c0-1-0.3-1.8-0.8-2.2c-0.6-0.5-1.4-0.7-2.5-0.7h-3.5V473.3z"/>
		<path fill="#7C72EB" d="M163.4,475.3h-1.6l-0.3-1.7c-0.4,0.6-0.9,1-1.5,1.4s-1.4,0.5-2.3,0.5c-0.5,0-1-0.1-1.4-0.2
			c-0.4-0.1-0.8-0.4-1.2-0.7c-0.3-0.3-0.6-0.7-0.8-1.1c-0.2-0.5-0.3-1-0.3-1.7c0-0.6,0.1-1.2,0.4-1.7c0.3-0.5,0.6-0.9,1.1-1.2
			c0.5-0.3,1-0.6,1.7-0.7c0.7-0.2,1.4-0.3,2.2-0.3h1.9v-0.5c0-0.9-0.3-1.6-0.8-1.9c-0.5-0.4-1.1-0.5-1.9-0.5c-0.6,0-1.2,0.2-1.6,0.5
			c-0.5,0.3-0.8,0.8-0.9,1.4l-1.8-0.4c0.2-1,0.6-1.8,1.4-2.4c0.8-0.6,1.7-0.9,2.9-0.9c0.7,0,1.3,0.1,1.8,0.3
			c0.6,0.2,1.1,0.4,1.5,0.8c0.4,0.4,0.7,0.8,1,1.4c0.2,0.6,0.3,1.3,0.3,2V475.3z M156.1,471.8c0,0.6,0.2,1,0.5,1.3
			c0.3,0.3,0.8,0.5,1.5,0.5c0.4,0,0.8-0.1,1.2-0.2s0.8-0.3,1.1-0.6c0.3-0.3,0.6-0.7,0.8-1.1c0.2-0.5,0.3-1,0.3-1.7v-0.3h-2.1
			c-1,0-1.8,0.2-2.4,0.5C156.3,470.6,156.1,471.1,156.1,471.8z"/>
		<path fill="#7C72EB" d="M176.9,472.1c-0.5,1.1-1.1,2-1.9,2.5c-0.8,0.5-1.8,0.8-3.1,0.8c-0.9,0-1.7-0.2-2.4-0.5
			c-0.7-0.3-1.2-0.8-1.7-1.4c-0.5-0.6-0.8-1.2-1-2c-0.2-0.7-0.3-1.5-0.3-2.3s0.1-1.6,0.3-2.3s0.6-1.4,1-2c0.5-0.6,1-1,1.7-1.4
			c0.7-0.3,1.5-0.5,2.4-0.5c1.2,0,2.3,0.3,3.1,0.8s1.5,1.4,1.9,2.5l-1.7,0.7c-0.3-0.7-0.7-1.3-1.3-1.7c-0.5-0.4-1.2-0.6-2-0.6
			c-0.6,0-1.1,0.1-1.5,0.3c-0.4,0.2-0.8,0.5-1.1,0.9c-0.3,0.4-0.5,0.9-0.6,1.4s-0.2,1.1-0.2,1.7c0,0.6,0.1,1.2,0.2,1.7
			c0.1,0.5,0.3,1,0.6,1.4c0.3,0.4,0.6,0.7,1.1,0.9c0.4,0.2,0.9,0.3,1.5,0.3c0.8,0,1.5-0.2,2-0.6c0.5-0.4,0.9-0.9,1.3-1.7
			L176.9,472.1z"/>
		<path fill="#7C72EB" d="M181.9,458.4v9.9l4.7-5h2.6l-5.1,5.5l5.5,6.5h-2.5l-5.1-6v6h-2v-16.8H181.9z"/>
		<path fill="#7C72EB" d="M192,467.1c0-0.6,0.1-1.2,0.3-1.7c0.2-0.5,0.5-0.9,0.9-1.3s0.8-0.6,1.3-0.8c0.5-0.2,1.1-0.3,1.6-0.3
			c0.4,0,0.8,0,1.1,0.1c0.4,0.1,0.7,0.2,1,0.4l2.1-1.2l0.9,1.6l-1.6,0.9c0.4,0.6,0.6,1.3,0.6,2.2c0,0.6-0.1,1.2-0.3,1.7
			c-0.2,0.5-0.5,0.9-0.9,1.3c-0.4,0.3-0.8,0.6-1.3,0.8c-0.5,0.2-1.1,0.3-1.6,0.3c-0.8,0-1.5-0.1-2.1-0.4c-0.5,0.3-0.8,0.6-0.8,1.2
			c0,0.7,0.5,1,1.4,1h2.8c1.1,0,2,0.3,2.7,0.8c0.7,0.6,1,1.4,1,2.5c0,0.7-0.1,1.4-0.4,1.9c-0.3,0.5-0.6,1-1.1,1.3
			c-0.5,0.3-1,0.6-1.6,0.7c-0.6,0.2-1.3,0.2-1.9,0.2c-0.8,0-1.5-0.1-2.1-0.3c-0.6-0.2-1.2-0.4-1.6-0.8c-0.4-0.3-0.8-0.8-1-1.2
			c-0.2-0.5-0.4-1-0.4-1.7c0-0.6,0.1-1,0.3-1.5c0.2-0.4,0.5-0.8,0.8-1c-0.3-0.2-0.5-0.5-0.6-0.8c-0.1-0.3-0.2-0.7-0.2-1.1
			c0-0.5,0.1-0.9,0.4-1.3c0.3-0.4,0.6-0.7,1.1-0.9c-0.3-0.3-0.5-0.7-0.6-1.2C192,468.1,192,467.7,192,467.1z M194.7,474.6
			c-0.2,0-0.3,0-0.5,0c-0.2,0-0.3,0-0.4,0c-0.3,0.2-0.5,0.5-0.6,0.8c-0.1,0.3-0.2,0.6-0.2,1c0,0.7,0.3,1.2,0.8,1.6
			c0.5,0.4,1.3,0.6,2.3,0.6c1,0,1.8-0.2,2.3-0.6c0.5-0.4,0.7-0.9,0.7-1.6c0-0.7-0.2-1.1-0.6-1.4s-0.9-0.4-1.5-0.4H194.7z
			 M193.9,467.1c0,0.8,0.2,1.3,0.7,1.7s1,0.6,1.6,0.6s1.1-0.2,1.6-0.6s0.7-1,0.7-1.7s-0.2-1.3-0.7-1.7s-1-0.6-1.6-0.6
			s-1.1,0.2-1.6,0.6S193.9,466.4,193.9,467.1z"/>
		<path fill="#7C72EB" d="M210.8,465.2c-0.4-0.2-0.9-0.3-1.4-0.3c-0.4,0-0.8,0.1-1.2,0.4c-0.4,0.2-0.8,0.6-1.1,1.1
			c-0.3,0.5-0.6,1.1-0.8,1.8c-0.2,0.7-0.3,1.6-0.3,2.5v4.5h-2v-12h2v2c0.2-0.3,0.4-0.6,0.7-0.9s0.6-0.5,0.9-0.7
			c0.3-0.2,0.6-0.3,1-0.5s0.7-0.2,1-0.2s0.6,0,0.9,0.1s0.5,0.2,0.7,0.3L210.8,465.2z"/>
		<path fill="#7C72EB" d="M212.5,469.3c0-0.8,0.1-1.6,0.4-2.3s0.6-1.4,1.1-2c0.5-0.6,1.1-1,1.8-1.4c0.7-0.3,1.5-0.5,2.4-0.5
			c0.9,0,1.7,0.2,2.4,0.5c0.7,0.3,1.3,0.8,1.8,1.4c0.5,0.6,0.9,1.2,1.1,2c0.3,0.7,0.4,1.5,0.4,2.3s-0.1,1.6-0.4,2.3
			c-0.3,0.7-0.6,1.4-1.1,2c-0.5,0.6-1.1,1-1.8,1.4c-0.7,0.3-1.5,0.5-2.4,0.5c-0.9,0-1.7-0.2-2.4-0.5c-0.7-0.3-1.3-0.8-1.8-1.4
			c-0.5-0.6-0.9-1.2-1.1-2C212.6,470.8,212.5,470.1,212.5,469.3z M214.5,469.3c0,0.6,0.1,1.1,0.2,1.6c0.2,0.5,0.4,1,0.7,1.4
			s0.7,0.7,1.2,1c0.5,0.2,1,0.4,1.6,0.4s1.2-0.1,1.6-0.4c0.5-0.2,0.8-0.6,1.2-1c0.3-0.4,0.5-0.9,0.7-1.4c0.2-0.5,0.2-1.1,0.2-1.6
			s-0.1-1.1-0.2-1.6c-0.2-0.5-0.4-1-0.7-1.4c-0.3-0.4-0.7-0.7-1.2-1c-0.5-0.2-1-0.4-1.6-0.4s-1.2,0.1-1.6,0.4
			c-0.5,0.2-0.8,0.6-1.2,1s-0.5,0.9-0.7,1.4C214.6,468.2,214.5,468.7,214.5,469.3z"/>
		<path fill="#7C72EB" d="M227.2,463.3h2v7.9c0,0.8,0.2,1.4,0.5,1.8c0.4,0.4,0.9,0.6,1.5,0.6c0.4,0,0.9-0.1,1.3-0.4
			c0.4-0.2,0.8-0.6,1.1-1.1c0.3-0.5,0.6-1,0.8-1.7c0.2-0.7,0.3-1.4,0.3-2.2v-5h2v12h-2V473c-0.4,0.8-1,1.4-1.7,1.8
			c-0.7,0.4-1.4,0.6-2.3,0.6c-1.1,0-2-0.3-2.6-1c-0.6-0.6-0.9-1.6-0.9-2.8V463.3z"/>
		<path fill="#7C72EB" d="M250.2,475.3h-2v-7.9c0-0.8-0.2-1.4-0.5-1.8s-0.9-0.6-1.5-0.6c-0.4,0-0.9,0.1-1.3,0.4s-0.8,0.6-1.1,1.1
			s-0.6,1-0.8,1.7s-0.3,1.4-0.3,2.2v5h-2v-12h2v2.2c0.4-0.8,1-1.4,1.7-1.8c0.7-0.4,1.4-0.6,2.3-0.6c1.1,0,2,0.3,2.6,1
			c0.6,0.7,0.9,1.6,0.9,2.8V475.3z"/>
		<path fill="#7C72EB" d="M253.2,469.3c0-0.9,0.1-1.7,0.3-2.5c0.2-0.8,0.6-1.4,1-2c0.5-0.5,1-1,1.7-1.3c0.7-0.3,1.4-0.5,2.3-0.5
			c0.4,0,0.8,0.1,1.1,0.2c0.4,0.1,0.7,0.2,1,0.4c0.3,0.2,0.6,0.3,0.8,0.5c0.2,0.2,0.4,0.4,0.5,0.5v-6.3h2v16.8h-2v-1.5
			c-0.1,0.2-0.3,0.4-0.6,0.6c-0.2,0.2-0.5,0.4-0.8,0.5c-0.3,0.2-0.6,0.3-1,0.4c-0.4,0.1-0.7,0.1-1.1,0.1c-0.9,0-1.7-0.2-2.3-0.5
			s-1.2-0.7-1.7-1.3c-0.5-0.5-0.8-1.2-1-2C253.3,471,253.2,470.2,253.2,469.3z M255.3,469.3c0,0.7,0.1,1.2,0.3,1.8
			c0.2,0.5,0.4,1,0.7,1.4c0.3,0.4,0.7,0.7,1.1,0.9c0.4,0.2,0.9,0.3,1.4,0.3c0.5,0,1-0.1,1.5-0.3c0.4-0.2,0.8-0.5,1.1-0.9
			c0.3-0.4,0.5-0.8,0.7-1.4s0.2-1.1,0.2-1.8c0-0.6-0.1-1.2-0.2-1.8c-0.2-0.5-0.4-1-0.7-1.4s-0.7-0.7-1.1-0.9
			c-0.4-0.2-0.9-0.3-1.5-0.3c-0.5,0-1,0.1-1.4,0.3s-0.8,0.5-1.1,0.9c-0.3,0.4-0.5,0.9-0.7,1.4C255.3,468,255.3,468.6,255.3,469.3z"
			/>
	</g>
</g>
<g id="Layer_3">
	<path fill="#7C72EB" d="M452.1,389.4H55.2c-7.1,0-12.9-5.8-12.9-12.9v-49.4c0-7.1,5.8-12.9,12.9-12.9h396.9
		c7.1,0,12.9,5.8,12.9,12.9v49.4C465,383.6,459.2,389.4,452.1,389.4z"/>
	<path fill="#252550" stroke="#7C72EB" stroke-width="3.418" stroke-miterlimit="10" d="M445.1,381.4H48.2
		c-7.1,0-12.9-5.8-12.9-12.9v-49.4c0-7.1,5.8-12.9,12.9-12.9h396.9c7.1,0,12.9,5.8,12.9,12.9v49.4
		C458,375.6,452.2,381.4,445.1,381.4z"/>
	<path fill="#7C72EB" d="M96.2,330.9l-7.1-7.1c-0.8-0.8-1.8-1.2-2.9-1.2H69c-2.2,0-4.1,1.8-4.1,4.1v35.1c0,2.2,1.8,4.1,4.1,4.1h24.3
		c2.2,0,4.1-1.8,4.1-4.1v-28C97.4,332.7,96.9,331.7,96.2,330.9z M94.3,332.8c0.2,0.2,0.3,0.4,0.4,0.6h-8.1v-8.1
		c0.2,0.1,0.4,0.2,0.6,0.4L94.3,332.8z M93.3,363.2H69c-0.7,0-1.4-0.6-1.4-1.4v-35.1c0-0.7,0.6-1.4,1.4-1.4h14.9v8.8
		c0,1.1,0.9,2,2,2h8.8v25.7C94.7,362.6,94.1,363.2,93.3,363.2z M89.3,342.6v0.7c0,0.6-0.5,1-1,1H74.1c-0.6,0-1-0.5-1-1v-0.7
		c0-0.6,0.5-1,1-1h14.2C88.8,341.6,89.3,342,89.3,342.6z M89.3,348v0.7c0,0.6-0.5,1-1,1H74.1c-0.6,0-1-0.5-1-1V348c0-0.6,0.5-1,1-1
		h14.2C88.8,347,89.3,347.4,89.3,348z M89.3,353.4v0.7c0,0.6-0.5,1-1,1H74.1c-0.6,0-1-0.5-1-1v-0.7c0-0.6,0.5-1,1-1h14.2
		C88.8,352.4,89.3,352.8,89.3,353.4z"/>
	<g>
		<path fill="#7C72EB" d="M126.2,335.4V352h8.6v2.3h-11v-19H126.2z"/>
		<path fill="#7C72EB" d="M136.8,347.5c0-0.9,0.1-1.8,0.4-2.7c0.3-0.8,0.7-1.6,1.3-2.2c0.6-0.6,1.3-1.2,2.1-1.6
			c0.8-0.4,1.7-0.6,2.8-0.6c1,0,1.9,0.2,2.7,0.6c0.8,0.4,1.5,0.9,2.1,1.6c0.6,0.7,1,1.4,1.3,2.2c0.3,0.8,0.4,1.7,0.4,2.7
			c0,0.9-0.1,1.8-0.4,2.7c-0.3,0.8-0.7,1.6-1.3,2.2c-0.6,0.6-1.3,1.2-2.1,1.6c-0.8,0.4-1.7,0.6-2.7,0.6c-1,0-1.9-0.2-2.8-0.6
			s-1.5-0.9-2.1-1.6c-0.6-0.7-1-1.4-1.3-2.2C136.9,349.3,136.8,348.4,136.8,347.5z M139.1,347.5c0,0.6,0.1,1.2,0.3,1.8
			c0.2,0.6,0.4,1.1,0.8,1.6s0.8,0.8,1.3,1.1c0.5,0.3,1.1,0.4,1.8,0.4c0.7,0,1.3-0.1,1.8-0.4c0.5-0.3,1-0.7,1.3-1.1
			c0.4-0.5,0.6-1,0.8-1.6c0.2-0.6,0.3-1.2,0.3-1.8s-0.1-1.2-0.3-1.8c-0.2-0.6-0.4-1.1-0.8-1.6c-0.4-0.5-0.8-0.8-1.3-1.1
			c-0.5-0.3-1.1-0.4-1.8-0.4c-0.7,0-1.3,0.1-1.8,0.4c-0.5,0.3-1,0.7-1.3,1.1c-0.4,0.5-0.6,1-0.8,1.6
			C139.2,346.2,139.1,346.9,139.1,347.5z"/>
		<path fill="#7C72EB" d="M153.6,345.1c0-0.7,0.1-1.3,0.4-1.9c0.2-0.6,0.6-1.1,1-1.4c0.4-0.4,0.9-0.7,1.5-0.9
			c0.6-0.2,1.2-0.3,1.9-0.3c0.5,0,0.9,0.1,1.3,0.2s0.8,0.3,1.2,0.5l2.4-1.4l1,1.9l-1.8,1c0.5,0.7,0.7,1.5,0.7,2.5
			c0,0.7-0.1,1.3-0.4,1.9s-0.6,1-1,1.4c-0.4,0.4-0.9,0.7-1.5,0.9c-0.6,0.2-1.2,0.3-1.9,0.3c-0.9,0-1.7-0.2-2.4-0.5
			c-0.6,0.3-0.9,0.7-0.9,1.3c0,0.8,0.5,1.1,1.5,1.1h3.2c1.3,0,2.3,0.3,3.1,0.9c0.8,0.6,1.2,1.6,1.2,2.8c0,0.8-0.2,1.6-0.5,2.2
			c-0.3,0.6-0.7,1.1-1.3,1.5s-1.1,0.7-1.8,0.8c-0.7,0.2-1.4,0.3-2.2,0.3c-0.9,0-1.7-0.1-2.4-0.3c-0.7-0.2-1.3-0.5-1.8-0.9
			c-0.5-0.4-0.9-0.9-1.2-1.4c-0.3-0.6-0.4-1.2-0.4-1.9c0-0.6,0.1-1.2,0.4-1.7c0.2-0.5,0.5-0.9,0.9-1.2c-0.3-0.3-0.5-0.6-0.7-0.9
			s-0.2-0.8-0.2-1.3c0-0.6,0.1-1.1,0.4-1.5c0.3-0.4,0.7-0.8,1.2-1c-0.3-0.4-0.6-0.8-0.7-1.3C153.7,346.2,153.6,345.7,153.6,345.1z
			 M156.8,353.5c-0.2,0-0.4,0-0.5,0c-0.2,0-0.3,0-0.5,0c-0.3,0.3-0.6,0.5-0.7,0.9c-0.1,0.3-0.2,0.7-0.2,1.1c0,0.8,0.3,1.4,0.9,1.9
			s1.5,0.7,2.6,0.7c1.2,0,2.1-0.2,2.6-0.7c0.6-0.5,0.8-1.1,0.8-1.8c0-0.8-0.2-1.3-0.7-1.6c-0.4-0.3-1-0.4-1.7-0.4H156.8z
			 M155.8,345.1c0,0.9,0.3,1.5,0.8,2c0.5,0.4,1.1,0.6,1.8,0.6c0.7,0,1.3-0.2,1.8-0.6c0.5-0.4,0.8-1.1,0.8-2c0-0.9-0.3-1.5-0.8-2
			c-0.5-0.5-1.1-0.7-1.8-0.7c-0.7,0-1.3,0.2-1.8,0.7C156.1,343.5,155.8,344.2,155.8,345.1z"/>
		<path fill="#7C72EB" d="M166.5,347.5c0-0.9,0.1-1.8,0.4-2.7c0.3-0.8,0.7-1.6,1.3-2.2c0.6-0.6,1.3-1.2,2.1-1.6
			c0.8-0.4,1.7-0.6,2.8-0.6c1,0,1.9,0.2,2.7,0.6c0.8,0.4,1.5,0.9,2.1,1.6c0.6,0.7,1,1.4,1.3,2.2c0.3,0.8,0.4,1.7,0.4,2.7
			c0,0.9-0.1,1.8-0.4,2.7c-0.3,0.8-0.7,1.6-1.3,2.2c-0.6,0.6-1.3,1.2-2.1,1.6c-0.8,0.4-1.7,0.6-2.7,0.6c-1,0-1.9-0.2-2.8-0.6
			s-1.5-0.9-2.1-1.6c-0.6-0.7-1-1.4-1.3-2.2C166.7,349.3,166.5,348.4,166.5,347.5z M168.8,347.5c0,0.6,0.1,1.2,0.3,1.8
			c0.2,0.6,0.4,1.1,0.8,1.6s0.8,0.8,1.3,1.1c0.5,0.3,1.1,0.4,1.8,0.4c0.7,0,1.3-0.1,1.8-0.4c0.5-0.3,1-0.7,1.3-1.1
			c0.4-0.5,0.6-1,0.8-1.6c0.2-0.6,0.3-1.2,0.3-1.8s-0.1-1.2-0.3-1.8c-0.2-0.6-0.4-1.1-0.8-1.6c-0.4-0.5-0.8-0.8-1.3-1.1
			c-0.5-0.3-1.1-0.4-1.8-0.4c-0.7,0-1.3,0.1-1.8,0.4c-0.5,0.3-1,0.7-1.3,1.1c-0.4,0.5-0.6,1-0.8,1.6
			C168.9,346.2,168.8,346.9,168.8,347.5z"/>
	</g>
</g>
<g id="Layer_4">
	<path fill="#252550" stroke="#7C72EB" stroke-width="3" stroke-miterlimit="10" d="M420.8,276.8H72.5c-6.3,0-11.3-5.1-11.3-11.3
		v-43.3c0-6.3,5.1-11.3,11.3-11.3h348.3c6.3,0,11.3,5.1,11.3,11.3v43.3C432.2,271.7,427.1,276.8,420.8,276.8z"/>
	<g>
		<path fill="#7C72EB" d="M137.5,236.4h11.7v2h-4.8V253h-2.1v-14.6h-4.8V236.4z"/>
		<path fill="#7C72EB" d="M151.3,237.7c0-0.4,0.1-0.8,0.4-1.1c0.3-0.3,0.6-0.4,1.1-0.4c0.4,0,0.8,0.1,1.1,0.4
			c0.3,0.3,0.4,0.7,0.4,1.1c0,0.4-0.1,0.8-0.4,1c-0.3,0.3-0.6,0.4-1.1,0.4c-0.4,0-0.8-0.1-1.1-0.4
			C151.4,238.5,151.3,238.1,151.3,237.7z M153.8,241v12h-2v-12H153.8z"/>
		<path fill="#7C72EB" d="M156.5,241h2.1v-3.6l2-1.3v4.9h3.1v1.8h-3.1v6.6c0,0.6,0.1,1.1,0.4,1.5c0.3,0.3,0.7,0.5,1.2,0.5
			c0.3,0,0.5,0,0.7-0.1c0.2-0.1,0.4-0.2,0.6-0.3l0.5,1.7c-0.3,0.2-0.6,0.3-0.9,0.4c-0.3,0.1-0.7,0.1-1,0.1c-1,0-1.8-0.3-2.5-1
			c-0.7-0.6-1-1.6-1-3v-6.4h-2.1V241z"/>
		<path fill="#7C72EB" d="M169,236.2V253h-2v-16.8H169z"/>
		<path fill="#7C72EB" d="M182.9,247.5h-8.8c0,0.6,0.1,1.1,0.3,1.5c0.2,0.5,0.4,0.9,0.6,1.2c0.3,0.4,0.6,0.6,1,0.8
			c0.4,0.2,0.9,0.3,1.4,0.3c0.9,0,1.6-0.2,2.1-0.6c0.5-0.4,0.9-1,1.2-1.7l1.8,0.8c-0.6,1.2-1.2,2-2,2.5c-0.8,0.5-1.8,0.8-3.1,0.8
			c-0.9,0-1.7-0.2-2.4-0.5c-0.7-0.3-1.2-0.8-1.7-1.4c-0.5-0.6-0.8-1.2-1-2s-0.3-1.5-0.3-2.3c0-0.8,0.1-1.6,0.3-2.3s0.6-1.4,1-2
			c0.5-0.6,1-1,1.7-1.4c0.7-0.3,1.5-0.5,2.4-0.5c0.9,0,1.7,0.2,2.3,0.5c0.7,0.3,1.2,0.7,1.7,1.3c0.5,0.5,0.8,1.1,1,1.8
			c0.2,0.7,0.3,1.4,0.3,2.1V247.5z M177.5,242.7c-0.9,0-1.7,0.3-2.2,0.8c-0.5,0.6-0.9,1.3-1.1,2.2h6.6c-0.2-0.9-0.5-1.6-1.1-2.1
			C179.2,243,178.5,242.7,177.5,242.7z"/>
	</g>
	<path fill="#7C72EB" d="M115.9,229c0.6,0,1.1,0.5,1.1,1.1v6.4c0,0.6-0.5,1.1-1.1,1.1h-2.1c-0.6,0-1.1-0.5-1.1-1.1v-2.1h-8.1v20.4
		h2.7c0.6,0,1.1,0.5,1.1,1.1v2.1c0,0.6-0.5,1.1-1.1,1.1H96.6c-0.6,0-1.1-0.5-1.1-1.1v-2.1c0-0.6,0.5-1.1,1.1-1.1h2.7v-20.4h-8.1v2.1
		c0,0.6-0.5,1.1-1.1,1.1H88c-0.6,0-1.1-0.5-1.1-1.1v-6.4c0-0.6,0.5-1.1,1.1-1.1H115.9z"/>
</g>
<g id="Layer_5">
	<g>
		<path fill="#252550" d="M107.3,134.7h6.8c1.6,0,2.9,0.4,3.9,1.3c1,0.9,1.4,2.1,1.4,3.8c0,0.8-0.2,1.5-0.5,2.1
			c-0.3,0.6-0.8,1.1-1.4,1.4c1.9,0.8,2.8,2.3,2.8,4.6c0,1.8-0.5,3.2-1.6,4.2s-2.6,1.5-4.5,1.5h-7V134.7z M113.9,141.9
			c0.7,0,1.3-0.2,1.6-0.5c0.4-0.3,0.5-0.8,0.5-1.6c0-0.7-0.2-1.3-0.6-1.6c-0.4-0.3-0.9-0.5-1.7-0.5h-3.1v4.1H113.9z M113.9,150.1
			c1,0,1.8-0.2,2.3-0.6c0.5-0.4,0.7-1,0.7-1.9c0-0.8-0.2-1.4-0.7-1.9c-0.5-0.4-1.2-0.6-2.3-0.6h-3.2v5H113.9z"/>
		<path fill="#252550" d="M124,152.5c-0.8-0.7-1.1-1.7-1.1-3c0-1.3,0.5-2.4,1.5-3.2c1-0.8,2.4-1.2,4.1-1.2h2.3v-0.6
			c0-0.7-0.2-1.2-0.7-1.5c-0.4-0.3-1-0.5-1.7-0.5c-1.2,0-1.9,0.5-2.3,1.5l-2.8-0.6c0.2-1.1,0.8-2,1.7-2.7c0.9-0.7,2.1-1,3.4-1
			c1.8,0,3.2,0.5,4.2,1.4c1,1,1.5,2.4,1.5,4.2v8h-2.7l-0.3-1.7c-1.1,1.3-2.4,1.9-4.1,1.9C125.7,153.6,124.7,153.2,124,152.5z
			 M129.9,150c0.6-0.5,0.9-1.2,0.9-2v-0.3h-2.2c-0.7,0-1.3,0.1-1.7,0.4c-0.4,0.3-0.6,0.7-0.6,1.3c0,0.4,0.1,0.7,0.4,0.9
			c0.3,0.2,0.6,0.4,1.1,0.4C128.6,150.7,129.3,150.5,129.9,150z"/>
		<path fill="#252550" d="M137.5,139.9h3.3v2.2c0.5-0.7,1.1-1.3,1.8-1.7s1.5-0.6,2.3-0.6c1.2,0,2.2,0.3,3,1c0.8,0.7,1.1,1.7,1.1,3
			v9.6h-3.3v-8.6c0-0.8-0.2-1.3-0.5-1.7c-0.3-0.4-0.8-0.5-1.4-0.5c-0.6,0-1.1,0.2-1.5,0.6c-0.5,0.4-0.8,1.1-1.1,1.9s-0.4,1.8-0.4,3
			v5.4h-3.3V139.9z"/>
		<path fill="#252550" d="M152.7,139.9h3.3v2.2c0.5-0.7,1.1-1.3,1.8-1.7s1.5-0.6,2.3-0.6c1.2,0,2.2,0.3,3,1c0.8,0.7,1.1,1.7,1.1,3
			v9.6H161v-8.6c0-0.8-0.2-1.3-0.5-1.7c-0.3-0.4-0.8-0.5-1.4-0.5c-0.6,0-1.1,0.2-1.5,0.6c-0.5,0.4-0.8,1.1-1.1,1.9s-0.4,1.8-0.4,3
			v5.4h-3.3V139.9z"/>
		<path fill="#252550" d="M170.1,152.5c-1-0.7-1.7-1.6-2.1-2.6c-0.5-1.1-0.7-2.2-0.7-3.3c0-1.1,0.2-2.2,0.7-3.3
			c0.5-1.1,1.2-1.9,2.1-2.6c1-0.7,2.2-1,3.6-1c1.4,0,2.6,0.3,3.5,1c0.9,0.7,1.6,1.5,2.1,2.5c0.4,1,0.7,2.1,0.7,3.1v1.4h-9.3
			c0,0.8,0.3,1.5,0.9,2.1s1.3,0.9,2.3,0.9c0.7,0,1.4-0.2,1.9-0.5c0.5-0.3,1-0.9,1.4-1.6l2.7,1c-0.6,1.3-1.3,2.2-2.3,2.9
			s-2.3,1-3.8,1C172.3,153.6,171.1,153.2,170.1,152.5z M176.7,145.1c-0.2-0.7-0.5-1.4-0.9-1.8c-0.5-0.5-1.1-0.7-1.9-0.7
			c-0.8,0-1.4,0.2-1.9,0.7c-0.5,0.5-0.8,1.1-1,1.8H176.7z"/>
		<path fill="#252550" d="M183,139.9h3.3v2.2c0.5-0.8,1.1-1.4,1.8-1.8c0.7-0.4,1.4-0.6,2.2-0.6c0.5,0,1,0.1,1.6,0.3l-0.6,3.1
			c-0.4-0.2-0.9-0.4-1.4-0.4c-1.1,0-1.9,0.5-2.6,1.4c-0.7,1-1,2.5-1,4.5v4.8H183V139.9z"/>
	</g>
	<g>
		<path fill="#7C72EB" d="M105.3,132.7h6.8c1.6,0,2.9,0.4,3.9,1.3c1,0.9,1.4,2.1,1.4,3.8c0,0.8-0.2,1.5-0.5,2.1
			c-0.3,0.6-0.8,1.1-1.4,1.4c1.9,0.8,2.8,2.3,2.8,4.6c0,1.8-0.5,3.2-1.6,4.2s-2.6,1.5-4.5,1.5h-7V132.7z M111.9,139.9
			c0.7,0,1.3-0.2,1.6-0.5c0.4-0.3,0.5-0.8,0.5-1.6c0-0.7-0.2-1.3-0.6-1.6c-0.4-0.3-0.9-0.5-1.7-0.5h-3.1v4.1H111.9z M111.9,148.1
			c1,0,1.8-0.2,2.3-0.6c0.5-0.4,0.7-1,0.7-1.9c0-0.8-0.2-1.4-0.7-1.9c-0.5-0.4-1.2-0.6-2.3-0.6h-3.2v5H111.9z"/>
		<path fill="#7C72EB" d="M122,150.5c-0.8-0.7-1.1-1.7-1.1-3c0-1.3,0.5-2.4,1.5-3.2c1-0.8,2.4-1.2,4.1-1.2h2.3v-0.6
			c0-0.7-0.2-1.2-0.7-1.5c-0.4-0.3-1-0.5-1.7-0.5c-1.2,0-1.9,0.5-2.3,1.5l-2.8-0.6c0.2-1.1,0.8-2,1.7-2.7c0.9-0.7,2.1-1,3.4-1
			c1.8,0,3.2,0.5,4.2,1.4c1,1,1.5,2.4,1.5,4.2v8h-2.7l-0.3-1.7c-1.1,1.3-2.4,1.9-4.1,1.9C123.7,151.6,122.7,151.2,122,150.5z
			 M127.9,148c0.6-0.5,0.9-1.2,0.9-2v-0.3h-2.2c-0.7,0-1.3,0.1-1.7,0.4c-0.4,0.3-0.6,0.7-0.6,1.3c0,0.4,0.1,0.7,0.4,0.9
			c0.3,0.2,0.6,0.4,1.1,0.4C126.6,148.7,127.3,148.5,127.9,148z"/>
		<path fill="#7C72EB" d="M135.5,137.9h3.3v2.2c0.5-0.7,1.1-1.3,1.8-1.7s1.5-0.6,2.3-0.6c1.2,0,2.2,0.3,3,1c0.8,0.7,1.1,1.7,1.1,3
			v9.6h-3.3v-8.6c0-0.8-0.2-1.3-0.5-1.7c-0.3-0.4-0.8-0.5-1.4-0.5c-0.6,0-1.1,0.2-1.5,0.6c-0.5,0.4-0.8,1.1-1.1,1.9s-0.4,1.8-0.4,3
			v5.4h-3.3V137.9z"/>
		<path fill="#7C72EB" d="M150.7,137.9h3.3v2.2c0.5-0.7,1.1-1.3,1.8-1.7s1.5-0.6,2.3-0.6c1.2,0,2.2,0.3,3,1c0.8,0.7,1.1,1.7,1.1,3
			v9.6H159v-8.6c0-0.8-0.2-1.3-0.5-1.7c-0.3-0.4-0.8-0.5-1.4-0.5c-0.6,0-1.1,0.2-1.5,0.6c-0.5,0.4-0.8,1.1-1.1,1.9s-0.4,1.8-0.4,3
			v5.4h-3.3V137.9z"/>
		<path fill="#7C72EB" d="M168.1,150.5c-1-0.7-1.7-1.6-2.1-2.6c-0.5-1.1-0.7-2.2-0.7-3.3c0-1.1,0.2-2.2,0.7-3.3
			c0.5-1.1,1.2-1.9,2.1-2.6c1-0.7,2.2-1,3.6-1c1.4,0,2.6,0.3,3.5,1c0.9,0.7,1.6,1.5,2.1,2.5c0.4,1,0.7,2.1,0.7,3.1v1.4h-9.3
			c0,0.8,0.3,1.5,0.9,2.1s1.3,0.9,2.3,0.9c0.7,0,1.4-0.2,1.9-0.5c0.5-0.3,1-0.9,1.4-1.6l2.7,1c-0.6,1.3-1.3,2.2-2.3,2.9
			s-2.3,1-3.8,1C170.3,151.6,169.1,151.2,168.1,150.5z M174.7,143.1c-0.2-0.7-0.5-1.4-0.9-1.8c-0.5-0.5-1.1-0.7-1.9-0.7
			c-0.8,0-1.4,0.2-1.9,0.7c-0.5,0.5-0.8,1.1-1,1.8H174.7z"/>
		<path fill="#7C72EB" d="M181,137.9h3.3v2.2c0.5-0.8,1.1-1.4,1.8-1.8c0.7-0.4,1.4-0.6,2.2-0.6c0.5,0,1,0.1,1.6,0.3l-0.6,3.1
			c-0.4-0.2-0.9-0.4-1.4-0.4c-1.1,0-1.9,0.5-2.6,1.4c-0.7,1-1,2.5-1,4.5v4.8H181V137.9z"/>
	</g>
	<path fill="#252550" d="M257.5,166.5h-163c-0.8,0-1.5-0.7-1.5-1.5l0,0c0-0.8,0.7-1.5,1.5-1.5h163c0.8,0,1.5,0.7,1.5,1.5l0,0
		C259,165.8,258.3,166.5,257.5,166.5z"/>
	<path fill="#7C72EB" d="M255.5,164.5h-163c-0.8,0-1.5-0.7-1.5-1.5l0,0c0-0.8,0.7-1.5,1.5-1.5h163c0.8,0,1.5,0.7,1.5,1.5l0,0
		C257,163.8,256.3,164.5,255.5,164.5z"/>
</g>
</svg>
