<?xml version="1.0" encoding="utf-8"?>
<!-- Generator: Adobe Illustrator 24.0.1, SVG Export Plug-In . SVG Version: 6.00 Build 0)  -->
<svg version="1.1" id="align" xmlns="http://www.w3.org/2000/svg" xmlns:xlink="http://www.w3.org/1999/xlink" x="0px" y="0px"
	 viewBox="0 0 500 650" enable-background="new 0 0 500 650" xml:space="preserve">
<path fill="#7C72EB" d="M310.8,271l-28.7-28.7c-3.1-3.1-7.2-4.8-11.6-4.8h-69.7c-9.1,0-16.4,7.4-16.4,16.4v142.1
	c0,9.1,7.3,16.4,16.4,16.4h98.4c9.1,0,16.4-7.3,16.4-16.4V282.6C315.6,278.3,313.9,274.1,310.8,271z M303.1,278.8
	c0.7,0.7,1.2,1.6,1.4,2.5h-32.6v-32.6c1,0.2,1.8,0.7,2.5,1.4L303.1,278.8z M299.2,401.6h-98.4c-3,0-5.5-2.5-5.5-5.5V253.9
	c0-3,2.5-5.5,5.5-5.5h60.1V284c0,4.5,3.7,8.2,8.2,8.2h35.5v103.9C304.7,399.1,302.2,401.6,299.2,401.6z M282.8,318.2v2.7
	c0,2.3-1.8,4.1-4.1,4.1h-57.4c-2.3,0-4.1-1.8-4.1-4.1v-2.7c0-2.3,1.8-4.1,4.1-4.1h57.4C281,314.1,282.8,315.9,282.8,318.2z
	 M282.8,340.1v2.7c0,2.3-1.8,4.1-4.1,4.1h-57.4c-2.3,0-4.1-1.8-4.1-4.1v-2.7c0-2.3,1.8-4.1,4.1-4.1h57.4
	C281,336,282.8,337.8,282.8,340.1z M282.8,361.9v2.7c0,2.3-1.8,4.1-4.1,4.1h-57.4c-2.3,0-4.1-1.8-4.1-4.1v-2.7
	c0-2.3,1.8-4.1,4.1-4.1h57.4C281,357.8,282.8,359.7,282.8,361.9z"/>
<g>
	<path fill="#7C72EB" d="M250,203.6L250,203.6c-3.2,0-5.7-2.6-5.7-5.7v-26.8c0-3.2,2.6-5.7,5.7-5.7l0,0c3.2,0,5.7,2.6,5.7,5.7v26.8
		C255.7,201.1,253.2,203.6,250,203.6z"/>
	<path fill="#7C72EB" d="M241.9,71.8l-29.7,29.7c-2.2,2.2-2.2,5.9,0,8.1l0,0c2.2,2.2,5.9,2.2,8.1,0l25.6-25.6c2.2-2.2,5.9-2.2,8.1,0
		l25.6,25.6c2.2,2.2,5.9,2.2,8.1,0v0c2.2-2.2,2.2-5.9,0-8.1l-33.8-33.8c-2.2-2.2-5.9-2.2-8.1,0L241.9,71.8z"/>
	<path fill="#7C72EB" d="M250,152L250,152c-3.2,0-5.7-2.6-5.7-5.7V131c0-3.2,2.6-5.7,5.7-5.7l0,0c3.2,0,5.7,2.6,5.7,5.7v15.3
		C255.7,149.4,253.2,152,250,152z"/>
	<path fill="#7C72EB" d="M250,112.2L250,112.2c-3.2,0-5.7-2.6-5.7-5.7v0c0-3.2,2.6-5.7,5.7-5.7l0,0c3.2,0,5.7,2.6,5.7,5.7v0
		C255.7,109.6,253.2,112.2,250,112.2z"/>
</g>
<g>
	<path fill="#7C72EB" d="M250,446.4L250,446.4c3.2,0,5.7,2.6,5.7,5.7v26.8c0,3.2-2.6,5.7-5.7,5.7l0,0c-3.2,0-5.7-2.6-5.7-5.7v-26.8
		C244.3,448.9,246.8,446.4,250,446.4z"/>
	<path fill="#7C72EB" d="M258.1,578.2l29.7-29.7c2.2-2.2,2.2-5.9,0-8.1l0,0c-2.2-2.2-5.9-2.2-8.1,0l-25.6,25.6
		c-2.2,2.2-5.9,2.2-8.1,0l-25.6-25.6c-2.2-2.2-5.9-2.2-8.1,0h0c-2.2,2.2-2.2,5.9,0,8.1l33.8,33.8c2.2,2.2,5.9,2.2,8.1,0L258.1,578.2
		z"/>
	<path fill="#7C72EB" d="M250,498L250,498c3.2,0,5.7,2.6,5.7,5.7V519c0,3.2-2.6,5.7-5.7,5.7l0,0c-3.2,0-5.7-2.6-5.7-5.7v-15.3
		C244.3,500.6,246.8,498,250,498z"/>
	<path fill="#7C72EB" d="M250,537.8L250,537.8c3.2,0,5.7,2.6,5.7,5.7l0,0c0,3.2-2.6,5.7-5.7,5.7l0,0c-3.2,0-5.7-2.6-5.7-5.7l0,0
		C244.3,540.4,246.8,537.8,250,537.8z"/>
</g>
<g>
	<path fill="#7C72EB" d="M349.3,341.9v-1c0-2.9,2.3-5.2,5.2-5.2H376c2.9,0,5.2,2.3,5.2,5.2v1c0,2.9-2.3,5.2-5.2,5.2h-21.5
		C351.6,347.2,349.3,344.8,349.3,341.9z"/>
	<path fill="#7C72EB" d="M475,333.3l-29.7-29.7c-2.2-2.2-5.9-2.2-8.1,0l0,0c-2.2,2.2-2.2,5.9,0,8.1l25.6,25.6c2.2,2.2,2.2,5.9,0,8.1
		l-25.6,25.6c-2.2,2.2-2.2,5.9,0,8.1l0,0c2.2,2.2,5.9,2.2,8.1,0l33.8-33.8c2.2-2.2,2.2-5.9,0-8.1L475,333.3z"/>
	<path fill="#7C72EB" d="M394.8,341.4L394.8,341.4c0-3.2,2.6-5.7,5.7-5.7h15.3c3.2,0,5.7,2.6,5.7,5.7l0,0c0,3.2-2.6,5.7-5.7,5.7
		h-15.3C397.3,347.2,394.8,344.6,394.8,341.4z"/>
	<path fill="#7C72EB" d="M434.5,341.4L434.5,341.4c0-3.2,2.6-5.7,5.7-5.7h0c3.2,0,5.7,2.6,5.7,5.7l0,0c0,3.2-2.6,5.7-5.7,5.7h0
		C437.1,347.2,434.5,344.6,434.5,341.4z"/>
</g>
<g>
	<path fill="#7C72EB" d="M150.7,340.9v1c0,2.9-2.3,5.2-5.2,5.2H124c-2.9,0-5.2-2.3-5.2-5.2v-1c0-2.9,2.3-5.2,5.2-5.2h21.5
		C148.4,335.7,150.7,338,150.7,340.9z"/>
	<path fill="#7C72EB" d="M25,349.5l29.7,29.7c2.2,2.2,5.9,2.2,8.1,0h0c2.2-2.2,2.2-5.9,0-8.1l-25.6-25.6c-2.2-2.2-2.2-5.9,0-8.1
		l25.6-25.6c2.2-2.2,2.2-5.9,0-8.1h0c-2.2-2.2-5.9-2.2-8.1,0l-33.8,33.8c-2.2,2.2-2.2,5.9,0,8.1L25,349.5z"/>
	<path fill="#7C72EB" d="M105.2,341.4L105.2,341.4c0,3.2-2.6,5.7-5.7,5.7H84.2c-3.2,0-5.7-2.6-5.7-5.7l0,0c0-3.2,2.6-5.7,5.7-5.7
		h15.3C102.7,335.7,105.2,338.3,105.2,341.4z"/>
	<path fill="#7C72EB" d="M65.5,341.4L65.5,341.4c0,3.2-2.6,5.7-5.7,5.7h0c-3.2,0-5.7-2.6-5.7-5.7l0,0c0-3.2,2.6-5.7,5.7-5.7h0
		C62.9,335.7,65.5,338.3,65.5,341.4z"/>
</g>
</svg>
