<?xml version="1.0" encoding="utf-8"?>
<!-- Generator: Adobe Illustrator 24.0.1, SVG Export Plug-In . SVG Version: 6.00 Build 0)  -->
<svg version="1.1" id="Layer_1" xmlns="http://www.w3.org/2000/svg" xmlns:xlink="http://www.w3.org/1999/xlink" x="0px" y="0px"
	 viewBox="0 0 2100 400" enable-background="new 0 0 2100 400" xml:space="preserve">
<g id="text">
	<g id="I">
		<path id="shadow_8_" fill="#F63E70" d="M670,303.2h-51.4V100.1H670V303.2z"/>
		<path id="text_8_" fill="#574AE2" d="M659.4,313.8H608V110.7h51.4V313.8z"/>
		<path id="paint_drops" fill="#39378D" d="M659.4,181.1c-17.4-17.4-34.1,30.1-51.4,12.8c0-13.5,0-83.2,0-83.2h51.4
			C659.4,110.7,659.4,142.6,659.4,181.1z"/>
	</g>
	<g id="L">
		<path id="shadow_7_" fill="#F63E70" d="M730.8,100.1h51.6v152.3h82.6v50.8H730.8V100.1z"/>
		<path id="text_7_" fill="#574AE2" d="M720.2,110.7h51.6v152.3h82.6v50.8H720.2V110.7z"/>
		<path id="paint_drops_1_" fill="#39378D" d="M771.6,212.9c-17.4-17.4-34.1,30.1-51.4,12.8c0-13.5,0-115,0-115h51.4
			C771.6,110.7,771.6,174.5,771.6,212.9z"/>
	</g>
	<g id="L2">
		<path id="shadow_6_" fill="#F63E70" d="M914.1,100.1h51.6v152.3h82.6v50.8H914.1V100.1z"/>
		<path id="text_6_" fill="#574AE2" d="M903.5,110.7h51.6v152.3h82.6v50.8H903.5V110.7z"/>
		<path id="paint_drops_2_" fill="#39378D" d="M954.9,189.6c-17.4-17.4-34.1,30.1-51.4,12.8c0-13.5,0-91.7,0-91.7h51.4
			C954.9,110.7,954.9,151.1,954.9,189.6z"/>
	</g>
	<g id="U">
		<path id="shadow_5_" fill="#F63E70" d="M1145.4,235.2c0,32.7,57.9,32.7,58.2,0V100.1h51.9v135.1c-0.3,95.2-162.4,95.2-162.1,0
			V100.1h51.9V235.2z"/>
		<path id="text_5_" fill="#574AE2" d="M1134.7,245.8c0,32.7,57.9,32.7,58.2,0V110.7h51.9v135.1c-0.3,95.2-162.4,95.2-162.1,0V110.7
			h51.9V245.8z"/>
		<g id="paint_drops_3_">
			<path fill="#39378D" d="M1082.8,233.2c17.3,17.3,33.9-30.2,51.4-12.8c0-38.5,0-109.6,0-109.6h-51.4
				C1082.8,110.7,1082.8,219.7,1082.8,233.2z"/>
			<path fill="#39378D" d="M1193.5,110.7c0,0,0,58,0,71.5c17.3,17.3,33.9-30.2,51.4-12.8c0-38.5,0-58.7,0-58.7H1193.5z"/>
		</g>
	</g>
	<g id="S">
		<path id="shadow_4_" fill="#F63E70" d="M1337.3,239c20.4,24.7,65.1,25.8,66.6,4c0.6-11.5-18.1-18.1-34.7-20.4
			c-32.7-5.2-62.5-25.8-62.5-64.5c0-39.9,36.1-60.8,73.4-60.8c24.7,0,48.5,6.9,69.4,32.4l-33.6,25.8c-21.2-22.7-57.7-21.8-58.5,1.7
			c0.6,9.8,11.2,15.5,27,18.9c36.1,6.6,72.3,19.2,70,69.1c-1.7,39.3-43,60.8-80.3,60.8c-24.4,0-50.2-12.3-69.1-36.7L1337.3,239z"/>
		<path id="text_4_" fill="#574AE2" d="M1326.6,249.6c20.4,24.7,65.1,25.8,66.6,4c0.6-11.5-18.1-18.1-34.7-20.4
			c-32.7-5.2-62.5-25.8-62.5-64.5c0-39.9,36.1-60.8,73.4-60.8c24.7,0,48.5,6.9,69.4,32.4l-33.6,25.8c-21.2-22.7-57.7-21.8-58.5,1.7
			c0.6,9.8,11.2,15.5,27,18.9c36.1,6.6,72.3,19.2,70,69.1c-1.7,39.3-43,60.8-80.3,60.8c-24.4,0-50.2-12.3-69.1-36.7L1326.6,249.6z"
			/>
		<path id="paint_drops_4_" fill="#39378D" d="M1369.4,107.9c-37.3,0-73.4,20.9-73.4,60.8c0,9,1.6,17.1,4.6,24.2
			c14.7-1.6,33.6-33.2,48.1-32.8c7.8-15.7,38.1-13.8,56.6,6l33.6-25.8C1417.9,114.7,1394.1,107.9,1369.4,107.9z"/>
	</g>
	<g id="T">
		<path id="shadow_3_" fill="#F63E70" d="M1598.9,148.6v154.6H1547V148.6H1493V99.8h159.8v48.8H1598.9z"/>
		<path id="text_3_" fill="#574AE2" d="M1588.3,159.2v154.6h-51.9V159.2h-53.9v-48.8h159.8v48.8H1588.3z"/>
		<path id="paint_drops_5_" fill="#39378D" d="M1642.2,110.4h-159.8v48.8h54.2c0,21.4,0,43.2,0,49.5c17.3,17.3,33.9-30.2,51.4-12.8
			c0-12,0-24.8,0-36.7h54.2V110.4z"/>
	</g>
	<g id="R">
		<path id="shadow_2_" fill="#F63E70" d="M1762.7,238.7h-9.2v64.5h-51.9V100.1h81.2c41.9,0,74.3,19.2,75.4,66.8
			c0,37.6-15.2,58.8-39.9,66.6l55.4,69.7h-64L1762.7,238.7z M1783.6,194.5c32.4,0,32.4-46.5,0-46.5h-30.1v46.5H1783.6z"/>
		<path id="text_2_" fill="#574AE2" d="M1752.1,249.3h-9.2v64.5H1691V110.7h81.2c41.9,0,74.3,19.2,75.4,66.8
			c0,37.6-15.2,58.8-39.9,66.6l55.4,69.7h-64L1752.1,249.3z M1773,205.1c32.4,0,32.4-46.5,0-46.5h-30.1v46.5H1773z"/>
		<path id="paint_drops_6_" fill="#39378D" d="M1847.5,182.9c0.1-1.7,0.1-3.5,0.1-5.3c-1.1-47.6-33.6-66.8-75.4-66.8H1691v89.1
			c16.3,11.5,35.5-28.6,51.9-16v-25.3h30.1c25.5,0,30.9,28.7,16.4,41C1805.7,211.6,1830.6,173.6,1847.5,182.9z"/>
	</g>
	<g id="A">
		<path id="shadow_1_" fill="#F63E70" d="M2088,303.2h-55.1l-13.2-40.7h-54.2l-12.6,40.7h-55.1l70.9-203.1h46.8L2088,303.2z
			 M2007.4,216.9l-14.1-59.4h-1.4l-14.9,59.4H2007.4z"/>
		<path id="text_1_" fill="#574AE2" d="M2077.4,313.8h-55.1l-13.2-40.7h-54.2l-12.6,40.7h-55.1l70.9-203.1h46.8L2077.4,313.8z
			 M1996.8,227.5l-14.1-59.4h-1.4l-14.9,59.4H1996.8z"/>
		<path id="paint_drops_7_" fill="#39378D" d="M2033.5,191.1l-28.7-80.4h-46.8l-38.6,110.5c15.7,6.6,37.3-25.2,53.2-18.8l8.6-34.3
			h1.4l10.1,42.6C2006,206.7,2021.2,189.5,2033.5,191.1z"/>
	</g>
</g>
<g id="logo">
	<linearGradient id="paint_splatter_1_" gradientUnits="userSpaceOnUse" x1="20.6552" y1="201.4407" x2="549.251" y2="201.4407">
		<stop  offset="0" style="stop-color:#FF2169"/>
		<stop  offset="1" style="stop-color:#E5757C"/>
	</linearGradient>
	<path id="paint_splatter" fill="url(#paint_splatter_1_)" d="M419.6,313.1c20.7-28.3,54.1-46.9,88.7-59.2
		c30.5-10.8,47.4-43.4,38.7-74.5C518,76.1,378.2,8.6,262.8,27c-97.1,15.5,294.7,171.1-232.3,91.2c-7.6-1.1-64.2,173.3,211.1,250.6
		c9.2,2.6,18.3,4.7,27.2,6.7c53.8,11.9,109.7-8.3,143.2-52.1C414.5,320.1,417,316.7,419.6,313.1z M358.2,91.6
		c5.8-20.8,27.4-32.9,48.2-27.1c20.8,5.8,32.9,27.4,27.1,48.2c-5.8,20.8-27.4,32.9-48.2,27.1C364.5,134,352.4,112.4,358.2,91.6z"/>
	<linearGradient id="shadow_9_" gradientUnits="userSpaceOnUse" x1="52.5923" y1="180.2835" x2="502.6683" y2="180.2835">
		<stop  offset="1.198083e-07" style="stop-color:#090925"/>
		<stop  offset="1" style="stop-color:#39378D"/>
	</linearGradient>
	<path id="shadow" fill="url(#shadow_9_)" d="M234.1,23.2C111.7,30.1,52.6,90.8,52.6,174.1c0,83.3,116.5,213.3,218.4,145.3
		c54.2-36.2-254.2-149.3,181.4-120.7C535.5,204.2,547.6,5.5,234.1,23.2z"/>
	<linearGradient id="colors_1_" gradientUnits="userSpaceOnUse" x1="44.0405" y1="121.9547" x2="416.331" y2="121.9547">
		<stop  offset="6.230033e-08" style="stop-color:#FF2169"/>
		<stop  offset="1" style="stop-color:#E5757C"/>
	</linearGradient>
	<polygon id="colors" fill="url(#colors_1_)" points="54.9,112.5 165.5,55 260.7,35.6 395.8,52.2 416.3,95.4 391.2,145 220.2,145 
		151.2,208.3 44,201.4 44,151.9 	"/>
	<g id="colors_stroke" opacity="0.46">
		<circle fill="none" stroke="#5B1833" stroke-width="6.9682" stroke-miterlimit="10" cx="119.2" cy="138.4" r="43.1"/>
		<circle fill="none" stroke="#5B1833" stroke-width="6.9682" stroke-miterlimit="10" cx="352.5" cy="90.7" r="25.5"/>
		
			<ellipse transform="matrix(0.7071 -0.7071 0.7071 0.7071 9.8641 194.8228)" fill="none" stroke="#5B1833" stroke-width="6.9682" stroke-miterlimit="10" cx="240.1" cy="85.5" rx="33.3" ry="33.3"/>
	</g>
	
		<ellipse id="palette_hole_stroke" transform="matrix(0.9732 -0.2298 0.2298 0.9732 -56.6919 46.4818)" fill="none" stroke="#574AE2" stroke-width="6.9682" stroke-miterlimit="10" cx="171.3" cy="266.7" rx="32" ry="32"/>
	<linearGradient id="palette_2_" gradientUnits="userSpaceOnUse" x1="11.989" y1="184.6846" x2="498.5312" y2="184.6846">
		<stop  offset="0" style="stop-color:#222A68"/>
		<stop  offset="1" style="stop-color:#574AE2"/>
	</linearGradient>
	<path id="palette_1_" fill="url(#palette_2_)" d="M233.9,22.3C111.6,29.7,12,89.9,12,173.2c0,83.3,158.8,226,259.8,156.6
		c64.1-44.1-251.5-185.2,184-156.6C538.9,178.6,518.6,5.1,233.9,22.3z M76.2,138.4c0-23.8,19.3-43.1,43.1-43.1s43.1,19.3,43.1,43.1
		c0,23.8-19.3,43.1-43.1,43.1S76.2,162.2,76.2,138.4z M171.3,298.7c-17.7,0-32-14.3-32-32s14.3-32,32-32c17.7,0,32,14.3,32,32
		S188.9,298.7,171.3,298.7z M240.1,118.8c-18.4,0-33.3-14.9-33.3-33.3c0-18.4,14.9-33.3,33.3-33.3s33.3,14.9,33.3,33.3
		C273.4,103.9,258.5,118.8,240.1,118.8z M352.5,116.2c-14.1,0-25.5-11.4-25.5-25.5s11.4-25.5,25.5-25.5c14.1,0,25.5,11.4,25.5,25.5
		S366.6,116.2,352.5,116.2z"/>
</g>
</svg>
